<mxfile host="app.diagrams.net" modified="2023-11-03T17:20:18.147Z" agent="Mozilla/5.0 (Windows NT 10.0; Win64; x64) AppleWebKit/537.36 (KHTML, like Gecko) Chrome/118.0.0.0 Safari/537.36 Edg/118.0.2088.76" etag="OGGMm_Unwo06jv1RHuMU" version="22.0.8" type="github">
  <diagram name="Page-1" id="GFStLFNguYGMUY-ip17j">
    <mxGraphModel dx="1048" dy="623" grid="1" gridSize="10" guides="1" tooltips="1" connect="1" arrows="1" fold="1" page="1" pageScale="1" pageWidth="850" pageHeight="1100" math="0" shadow="0">
      <root>
        <mxCell id="0" />
        <mxCell id="1" parent="0" />
        <mxCell id="YBiJbvEOrc6qtVej-ACj-2" value="User" style="shape=umlActor;verticalLabelPosition=bottom;verticalAlign=top;html=1;outlineConnect=0;" vertex="1" parent="1">
          <mxGeometry x="50" y="210" width="70" height="100" as="geometry" />
        </mxCell>
        <mxCell id="YBiJbvEOrc6qtVej-ACj-3" value="Context Diagram" style="text;html=1;align=center;verticalAlign=middle;resizable=0;points=[];autosize=1;strokeColor=none;fillColor=none;fontSize=24;" vertex="1" parent="1">
          <mxGeometry x="325" y="20" width="200" height="40" as="geometry" />
        </mxCell>
        <mxCell id="YBiJbvEOrc6qtVej-ACj-5" value="To Do Application" style="whiteSpace=wrap;html=1;aspect=fixed;" vertex="1" parent="1">
          <mxGeometry x="480" y="200" width="120" height="120" as="geometry" />
        </mxCell>
        <mxCell id="YBiJbvEOrc6qtVej-ACj-6" value="Trello" style="whiteSpace=wrap;html=1;aspect=fixed;" vertex="1" parent="1">
          <mxGeometry x="480" y="500" width="120" height="120" as="geometry" />
        </mxCell>
        <mxCell id="YBiJbvEOrc6qtVej-ACj-7" value="" style="endArrow=classic;startArrow=classic;html=1;rounded=0;entryX=0;entryY=0.5;entryDx=0;entryDy=0;exitX=1;exitY=0.5;exitDx=0;exitDy=0;" edge="1" parent="1" source="YBiJbvEOrc6qtVej-ACj-9" target="YBiJbvEOrc6qtVej-ACj-5">
          <mxGeometry width="50" height="50" relative="1" as="geometry">
            <mxPoint x="340" y="260" as="sourcePoint" />
            <mxPoint x="390" y="420" as="targetPoint" />
            <Array as="points" />
          </mxGeometry>
        </mxCell>
        <mxCell id="YBiJbvEOrc6qtVej-ACj-8" value="" style="endArrow=classic;startArrow=classic;html=1;rounded=0;entryX=0.5;entryY=1;entryDx=0;entryDy=0;exitX=0.5;exitY=0;exitDx=0;exitDy=0;" edge="1" parent="1" source="YBiJbvEOrc6qtVej-ACj-6" target="YBiJbvEOrc6qtVej-ACj-5">
          <mxGeometry width="50" height="50" relative="1" as="geometry">
            <mxPoint x="520" y="440" as="sourcePoint" />
            <mxPoint x="570" y="390" as="targetPoint" />
          </mxGeometry>
        </mxCell>
        <mxCell id="YBiJbvEOrc6qtVej-ACj-9" value="Web Browser" style="whiteSpace=wrap;html=1;aspect=fixed;" vertex="1" parent="1">
          <mxGeometry x="250" y="210" width="100" height="100" as="geometry" />
        </mxCell>
        <mxCell id="YBiJbvEOrc6qtVej-ACj-12" value="" style="endArrow=classic;startArrow=classic;html=1;rounded=0;entryX=0;entryY=0.5;entryDx=0;entryDy=0;" edge="1" parent="1" source="YBiJbvEOrc6qtVej-ACj-2" target="YBiJbvEOrc6qtVej-ACj-9">
          <mxGeometry width="50" height="50" relative="1" as="geometry">
            <mxPoint x="140" y="290" as="sourcePoint" />
            <mxPoint x="190" y="240" as="targetPoint" />
          </mxGeometry>
        </mxCell>
        <mxCell id="YBiJbvEOrc6qtVej-ACj-13" value="API" style="text;html=1;align=center;verticalAlign=middle;resizable=0;points=[];autosize=1;strokeColor=none;fillColor=none;" vertex="1" parent="1">
          <mxGeometry x="400" y="218" width="40" height="30" as="geometry" />
        </mxCell>
        <mxCell id="YBiJbvEOrc6qtVej-ACj-14" value="API" style="text;html=1;align=center;verticalAlign=middle;resizable=0;points=[];autosize=1;strokeColor=none;fillColor=none;" vertex="1" parent="1">
          <mxGeometry x="550" y="400" width="40" height="30" as="geometry" />
        </mxCell>
        <mxCell id="YBiJbvEOrc6qtVej-ACj-15" value="Manual Input" style="text;html=1;align=center;verticalAlign=middle;resizable=0;points=[];autosize=1;strokeColor=none;fillColor=none;" vertex="1" parent="1">
          <mxGeometry x="150" y="218" width="90" height="30" as="geometry" />
        </mxCell>
      </root>
    </mxGraphModel>
  </diagram>
</mxfile>
